<svg width="83" height="72" viewBox="0 0 83 72" fill="none" xmlns="http://www.w3.org/2000/svg">
<ellipse cx="41.5" cy="36.0923" rx="41.5" ry="35.9078" fill="white"/>
<path d="M43.9857 42.9704C43.9182 42.9037 43.8272 42.8662 43.7323 42.8662C43.6375 42.8662 43.5464 42.9037 43.479 42.9704L38.2687 48.1807C35.8564 50.593 31.785 50.8486 29.1216 48.1807C26.4537 45.5128 26.7093 41.4459 29.1216 39.0336L34.3319 33.8233C34.4709 33.6843 34.4709 33.4556 34.3319 33.3166L32.5473 31.5321C32.4799 31.4653 32.3888 31.4278 32.294 31.4278C32.1991 31.4278 32.108 31.4653 32.0406 31.5321L26.8304 36.7423C23.037 40.5357 23.037 46.6741 26.8304 50.463C30.6237 54.2519 36.7621 54.2563 40.551 50.463L45.7613 45.2527C45.9003 45.1137 45.9003 44.885 45.7613 44.746L43.9857 42.9704ZM55.581 21.7168C51.7876 17.9235 45.6492 17.9235 41.8603 21.7168L36.6456 26.9271C36.5788 26.9945 36.5414 27.0856 36.5414 27.1804C36.5414 27.2753 36.5788 27.3664 36.6456 27.4338L38.4257 29.2139C38.5647 29.3529 38.7933 29.3529 38.9323 29.2139L44.1426 24.0036C46.5549 21.5913 50.6263 21.3357 53.2897 24.0036C55.9576 26.6715 55.702 30.7384 53.2897 33.1507L48.0794 38.361C48.0127 38.4284 47.9752 38.5195 47.9752 38.6143C47.9752 38.7092 48.0127 38.8003 48.0794 38.8677L49.864 40.6523C50.003 40.7913 50.2317 40.7913 50.3707 40.6523L55.581 35.442C59.3698 31.6486 59.3698 25.5102 55.581 21.7168V21.7168ZM45.6043 29.8282C45.5369 29.7614 45.4459 29.724 45.351 29.724C45.2561 29.724 45.1651 29.7614 45.0977 29.8282L34.9417 39.9797C34.8749 40.0471 34.8375 40.1381 34.8375 40.233C34.8375 40.3279 34.8749 40.4189 34.9417 40.4864L36.7173 42.262C36.8563 42.401 37.085 42.401 37.224 42.262L47.3755 32.1105C47.5145 31.9715 47.5145 31.7428 47.3755 31.6038L45.6043 29.8282Z" fill="black"/>
</svg>
