<svg width="44" height="45" viewBox="0 0 44 45" fill="none" xmlns="http://www.w3.org/2000/svg">
<path fill-rule="evenodd" clip-rule="evenodd" d="M3.10504e-05 4.55767C3.10504e-05 3.60305 0.379254 2.68752 1.05428 2.0125C1.7293 1.33748 2.64482 0.958257 3.59945 0.958257H39.48C39.9531 0.957484 40.4217 1.05003 40.859 1.2306C41.2962 1.41116 41.6936 1.6762 42.0283 2.01054C42.363 2.34488 42.6285 2.74195 42.8095 3.17903C42.9906 3.6161 43.0836 4.08459 43.0834 4.55767V40.4383C43.0839 40.9114 42.9911 41.3801 42.8103 41.8173C42.6295 42.2546 42.3643 42.652 42.0298 42.9867C41.6953 43.3213 41.2981 43.5868 40.8609 43.7678C40.4237 43.9488 39.9552 44.0418 39.482 44.0416H3.59945C3.1266 44.0416 2.65839 43.9484 2.22156 43.7674C1.78473 43.5864 1.38785 43.3211 1.05358 42.9867C0.719321 42.6522 0.454231 42.2552 0.273458 41.8183C0.0926857 41.3813 -0.000226211 40.9131 3.10504e-05 40.4402V4.55767ZM17.0532 17.3848H22.8871V20.3144C23.7292 18.6303 25.8833 17.1145 29.1204 17.1145C35.3264 17.1145 36.7971 20.4691 36.7971 26.6242V38.0256H30.5167V28.0263C30.5167 24.5209 29.6747 22.543 27.5362 22.543C24.5693 22.543 23.3355 24.6756 23.3355 28.0263V38.0256H17.0532V17.3848ZM6.28236 37.7573H12.5647V17.1145H6.28236V37.7553V37.7573ZM13.4636 10.3818C13.4754 10.9197 13.3797 11.4545 13.182 11.9549C12.9844 12.4553 12.6888 12.9112 12.3125 13.2958C11.9363 13.6804 11.487 13.986 10.9911 14.1946C10.4952 14.4033 9.96254 14.5107 9.42451 14.5107C8.88648 14.5107 8.35387 14.4033 7.85793 14.1946C7.362 13.986 6.91273 13.6804 6.53649 13.2958C6.16026 12.9112 5.86464 12.4553 5.66698 11.9549C5.46932 11.4545 5.3736 10.9197 5.38545 10.3818C5.4087 9.32593 5.84445 8.32118 6.59939 7.58268C7.35433 6.84419 8.36843 6.43066 9.42451 6.43066C10.4806 6.43066 11.4947 6.84419 12.2496 7.58268C13.0046 8.32118 13.4403 9.32593 13.4636 10.3818V10.3818Z" fill="white"/>
</svg>
