<svg width="39" height="33" viewBox="0 0 39 33" fill="none" xmlns="http://www.w3.org/2000/svg">
<path d="M38.1394 2.18185L37.8864 9.74012C37.8014 12.2804 37.2965 14.9108 36.3716 17.6314C35.4037 20.3922 34.0652 23.0156 32.3561 25.5014C30.6456 28.029 28.6138 30.1914 26.2607 31.9887L19.8545 27.2092C21.8621 24.5248 23.4352 21.7426 24.5738 18.8624C25.7111 16.0238 26.3362 12.918 26.4491 9.5449L26.7083 1.79924L38.1394 2.18185ZM18.463 1.52325L18.21 9.08152C18.1249 11.6218 17.62 14.2522 16.6951 16.9728C15.7272 19.7336 14.3887 22.357 12.6796 24.8428C10.9691 27.3704 8.9373 29.5328 6.58419 31.3301L0.177992 26.5506C2.18558 23.8662 3.7587 21.084 4.89736 18.2038C6.03462 15.3652 6.6597 12.2594 6.7726 8.8863L7.03186 1.14064L18.463 1.52325Z" fill="white"/>
</svg>
