<svg width="38" height="31" viewBox="0 0 38 31" fill="none" xmlns="http://www.w3.org/2000/svg">
<path d="M0.5625 30.9375V23.375C0.5625 20.8333 0.979167 18.1875 1.8125 15.4375C2.6875 12.6458 3.9375 9.97917 5.5625 7.4375C7.1875 4.85417 9.14583 2.625 11.4375 0.75L18 5.3125C16.0833 8.0625 14.6042 10.8958 13.5625 13.8125C12.5208 16.6875 12 19.8125 12 23.1875V30.9375H0.5625ZM20.25 30.9375V23.375C20.25 20.8333 20.6667 18.1875 21.5 15.4375C22.375 12.6458 23.625 9.97917 25.25 7.4375C26.875 4.85417 28.8333 2.625 31.125 0.75L37.6875 5.3125C35.7708 8.0625 34.2917 10.8958 33.25 13.8125C32.2083 16.6875 31.6875 19.8125 31.6875 23.1875V30.9375H20.25Z" fill="white"/>
</svg>
