<svg width="30" height="30" viewBox="0 0 45 45" fill="none" xmlns="http://www.w3.org/2000/svg">
<path d="M22.0605 1.9248C21.4102 2.13574 21.0146 2.47851 20.7861 3.00585C20.6719 3.29589 20.6543 4.70214 20.6543 15.3545V27.3779L16.5059 23.2295C13.6406 20.373 12.2432 19.0371 12.0234 18.9404C11.6543 18.791 10.9336 18.7646 10.6084 18.8877C10.2568 19.0283 9.73828 19.5293 9.57129 19.9072C9.36035 20.3555 9.36035 20.9531 9.57129 21.4014C9.68555 21.6387 11.6279 23.6338 15.6533 27.6592C21.8848 33.8643 21.7529 33.75 22.5 33.75C23.2471 33.75 23.1152 33.8643 29.3467 27.6592C33.3721 23.6338 35.3145 21.6387 35.4287 21.4014C35.6396 20.9531 35.6396 20.3555 35.4287 19.9072C35.2617 19.5293 34.7432 19.0283 34.3916 18.8877C34.0664 18.7646 33.3457 18.791 32.9766 18.9404C32.7568 19.0371 31.3594 20.373 28.5029 23.2295L24.3457 27.3779V15.3545C24.3457 2.30273 24.3721 3.00585 23.8799 2.47851C23.4668 2.03027 22.5703 1.75781 22.0605 1.9248Z" fill="black"/>
<path d="M3.23437 30.0762C3.0498 30.1201 2.72461 30.3223 2.51367 30.5156C1.83691 31.1045 1.8457 31.0518 1.8457 36.5361C1.8457 39.9111 1.87207 41.4404 1.95117 41.7305C2.09179 42.293 2.70703 42.9082 3.26953 43.0488C3.57715 43.1279 8.38476 43.1543 22.5264 43.1543C43.6992 43.1543 41.9766 43.207 42.6094 42.4951C42.8115 42.2578 42.9961 41.9414 43.0576 41.7041C43.1894 41.168 43.1894 31.957 43.0576 31.4209C42.9961 31.1836 42.8115 30.8672 42.6094 30.6299C41.748 29.6455 40.1924 29.8564 39.6035 31.0342L39.375 31.5V35.4375V39.375H22.5H5.625V35.4287V31.4824L5.3789 31.0166C4.97461 30.2344 4.06933 29.8389 3.23437 30.0762Z" fill="black"/>
</svg>
