<svg width="48" height="46" viewBox="0 0 48 46" fill="none" xmlns="http://www.w3.org/2000/svg">
<path fill-rule="evenodd" clip-rule="evenodd" d="M23.5417 0C10.5579 0 0.041687 10.5162 0.041687 23.5C0.041687 33.8988 6.76856 42.6819 16.1098 45.7956C17.2848 46.0013 17.7254 45.2963 17.7254 44.6794C17.7254 44.1213 17.6961 42.2706 17.6961 40.3025C11.7917 41.3894 10.2642 38.8631 9.79419 37.5413C9.52981 36.8656 8.38419 34.78 7.38544 34.2219C6.56294 33.7813 5.38794 32.6944 7.35606 32.665C9.20669 32.6356 10.5286 34.3688 10.9692 35.0738C13.0842 38.6281 16.4623 37.6294 17.8136 37.0125C18.0192 35.485 18.6361 34.4569 19.3117 33.8694C14.0829 33.2819 8.61919 31.255 8.61919 22.2663C8.61919 19.7106 9.52981 17.5956 11.0279 15.9506C10.7929 15.3631 9.97044 12.9544 11.2629 9.72313C11.2629 9.72313 13.2311 9.10625 17.7254 12.1319C19.6054 11.6031 21.6029 11.3388 23.6004 11.3388C25.5979 11.3388 27.5954 11.6031 29.4754 12.1319C33.9698 9.07688 35.9379 9.72313 35.9379 9.72313C37.2304 12.9544 36.4079 15.3631 36.1729 15.9506C37.6711 17.5956 38.5817 19.6813 38.5817 22.2663C38.5817 31.2844 33.0886 33.2819 27.8598 33.8694C28.7117 34.6038 29.4461 36.0137 29.4461 38.2169C29.4461 41.36 29.4167 43.8863 29.4167 44.6794C29.4167 45.2963 29.8573 46.0306 31.0323 45.7956C35.6974 44.2206 39.7512 41.2223 42.623 37.2228C45.4949 33.2232 47.0403 28.4238 47.0417 23.5C47.0417 10.5162 36.5254 0 23.5417 0Z" fill="white"/>
</svg>
