<svg width="44" height="45" viewBox="0 0 44 45" fill="none" xmlns="http://www.w3.org/2000/svg">
<path fill-rule="evenodd" clip-rule="evenodd" d="M12.6606 1.0875C14.9577 0.981752 15.6902 0.958252 21.5417 0.958252C27.3932 0.958252 28.1256 0.98371 30.4207 1.0875C32.7159 1.19129 34.2826 1.5575 35.6534 2.08821C37.0889 2.63067 38.3912 3.47863 39.4682 4.57529C40.5649 5.65042 41.4109 6.95075 41.9514 8.38817C42.4841 9.759 42.8483 11.3257 42.9541 13.6169C43.0598 15.918 43.0833 16.6504 43.0833 22.4999C43.0833 28.3514 43.0579 29.0838 42.9541 31.381C42.8503 33.6722 42.4841 35.2389 41.9514 36.6097C41.4109 38.0473 40.5635 39.3498 39.4682 40.4265C38.3912 41.5232 37.0889 42.3692 35.6534 42.9097C34.2826 43.4423 32.7159 43.8066 30.4247 43.9123C28.1256 44.0181 27.3932 44.0416 21.5417 44.0416C15.6902 44.0416 14.9577 44.0161 12.6606 43.9123C10.3694 43.8085 8.80271 43.4423 7.43187 42.9097C5.9943 42.3691 4.69181 41.5217 3.61508 40.4265C2.51916 39.3507 1.67107 38.0489 1.12996 36.6117C0.59925 35.2408 0.235 33.6742 0.12925 31.3829C0.0235 29.0819 0 28.3495 0 22.4999C0 16.6484 0.0254583 15.916 0.12925 13.6208C0.233042 11.3257 0.59925 9.759 1.12996 8.38817C1.67187 6.95091 2.52061 5.64907 3.61704 4.57334C4.69225 3.47765 5.99342 2.62958 7.42992 2.08821C8.80075 1.5575 10.3674 1.19325 12.6587 1.0875H12.6606ZM30.2465 4.965C27.9748 4.86121 27.2933 4.83967 21.5417 4.83967C15.79 4.83967 15.1085 4.86121 12.8369 4.965C10.7356 5.06096 9.59583 5.4115 8.836 5.70721C7.83137 6.09888 7.11267 6.563 6.35871 7.31696C5.644 8.01227 5.09398 8.85872 4.74896 9.79425C4.45325 10.5541 4.10271 11.6938 4.00675 13.7951C3.90296 16.0668 3.88142 16.7483 3.88142 22.4999C3.88142 28.2515 3.90296 28.933 4.00675 31.2047C4.10271 33.306 4.45325 34.4458 4.74896 35.2056C5.09362 36.1397 5.64392 36.9877 6.35871 37.6829C7.05392 38.3977 7.90187 38.948 8.836 39.2926C9.59583 39.5883 10.7356 39.9389 12.8369 40.0348C15.1085 40.1386 15.7881 40.1602 21.5417 40.1602C27.2952 40.1602 27.9748 40.1386 30.2465 40.0348C32.3477 39.9389 33.4875 39.5883 34.2473 39.2926C35.252 38.901 35.9707 38.4368 36.7246 37.6829C37.4394 36.9877 37.9897 36.1397 38.3344 35.2056C38.6301 34.4458 38.9806 33.306 39.0766 31.2047C39.1804 28.933 39.2019 28.2515 39.2019 22.4999C39.2019 16.7483 39.1804 16.0668 39.0766 13.7951C38.9806 11.6938 38.6301 10.5541 38.3344 9.79425C37.9427 8.78963 37.4786 8.07092 36.7246 7.31696C36.0293 6.60231 35.1828 6.05229 34.2473 5.70721C33.4875 5.4115 32.3477 5.06096 30.2465 4.965V4.965ZM18.7902 29.1406C20.3268 29.7803 22.0379 29.8666 23.6311 29.3849C25.2243 28.9031 26.6008 27.8832 27.5256 26.4993C28.4503 25.1154 28.8659 23.4534 28.7014 21.7971C28.5369 20.1408 27.8025 18.593 26.6235 17.418C25.872 16.667 24.9633 16.0919 23.9628 15.7342C22.9623 15.3764 21.895 15.245 20.8376 15.3493C19.7803 15.4536 18.7592 15.791 17.8479 16.3373C16.9366 16.8836 16.1577 17.6251 15.5674 18.5085C14.9771 19.392 14.59 20.3953 14.4339 21.4463C14.2779 22.4972 14.3568 23.5697 14.6651 24.5866C14.9733 25.6034 15.5031 26.5392 16.2164 27.3267C16.9297 28.1141 17.8087 28.7337 18.7902 29.1406ZM13.7122 14.6705C14.7404 13.6423 15.961 12.8267 17.3044 12.2703C18.6478 11.7138 20.0876 11.4275 21.5417 11.4275C22.9957 11.4275 24.4355 11.7138 25.7789 12.2703C27.1223 12.8267 28.3429 13.6423 29.3711 14.6705C30.3993 15.6987 31.2148 16.9193 31.7713 18.2627C32.3277 19.606 32.6141 21.0459 32.6141 22.4999C32.6141 23.954 32.3277 25.3938 31.7713 26.7372C31.2148 28.0805 30.3993 29.3012 29.3711 30.3293C27.2946 32.4058 24.4783 33.5724 21.5417 33.5724C18.6051 33.5724 15.7887 32.4058 13.7122 30.3293C11.6358 28.2528 10.4692 25.4365 10.4692 22.4999C10.4692 19.5633 11.6358 16.747 13.7122 14.6705V14.6705ZM35.0698 13.0764C35.3246 12.8361 35.5286 12.547 35.6697 12.2265C35.8108 11.9059 35.8861 11.5602 35.8912 11.21C35.8963 10.8598 35.8311 10.5121 35.6994 10.1875C35.5677 9.86294 35.3723 9.56808 35.1246 9.32041C34.8769 9.07274 34.5821 8.87728 34.2575 8.7456C33.9329 8.61392 33.5852 8.5487 33.235 8.55381C32.8848 8.55892 32.5391 8.63424 32.2186 8.77532C31.898 8.91641 31.6089 9.12038 31.3686 9.37517C30.9011 9.87068 30.6452 10.5289 30.6552 11.21C30.6651 11.8911 30.9401 12.5416 31.4218 13.0232C31.9034 13.5049 32.5539 13.7799 33.235 13.7898C33.9161 13.7998 34.5743 13.5439 35.0698 13.0764V13.0764Z" fill="white"/>
</svg>
