<svg width="47" height="47" viewBox="0 0 47 47" fill="none" xmlns="http://www.w3.org/2000/svg">
<g clip-path="url(#clip0_19_1049)">
<path fill-rule="evenodd" clip-rule="evenodd" d="M23.0046 43.1622C28.3421 43.1709 33.4644 41.0589 37.2447 37.2908C41.0249 33.5227 43.1535 28.4073 43.1622 23.0698C43.1708 17.7324 41.0588 12.6101 37.2907 8.82979C33.5227 5.04952 28.4073 2.92093 23.0698 2.91229C17.7323 2.90365 12.61 5.01567 8.82973 8.78372C5.04946 12.5518 2.92087 17.6672 2.91223 23.0047C2.90359 28.3422 5.0156 33.4645 8.78366 37.2447C12.5517 41.025 17.6671 43.1536 23.0046 43.1622V43.1622ZM23.0744 0.0372911C29.1744 0.0471653 35.0206 2.47984 39.327 6.80015C43.6333 11.1205 46.047 16.9745 46.0372 23.0745C46.0273 29.1745 43.5946 35.0207 39.2743 39.327C34.954 43.6334 29.0999 46.0471 23 46.0372C16.9 46.0274 11.0538 43.5947 6.74744 39.2744C2.44109 34.9541 0.0273565 29.1 0.0372308 23C0.047105 16.9001 2.47978 11.0538 6.80009 6.7475C11.1204 2.44115 16.9745 0.0274169 23.0744 0.0372911V0.0372911ZM12.977 21.5835C12.5958 21.5829 12.2299 21.7337 11.9599 22.0029C11.6899 22.272 11.5378 22.6374 11.5372 23.0186C11.5366 23.3999 11.6875 23.7658 11.9566 24.0358C12.2258 24.3058 12.5911 24.4579 12.9724 24.4585L29.6272 24.4854L23.4446 30.6452C23.1743 30.9147 23.022 31.2805 23.0214 31.6622C23.0208 32.044 23.1719 32.4103 23.4413 32.6807C23.7108 32.951 24.0767 33.1033 24.4584 33.1039C24.8401 33.1045 25.2065 32.9535 25.4768 32.684L34.1158 24.0729C34.2499 23.9396 34.3563 23.7812 34.4291 23.6066C34.5018 23.4321 34.5394 23.245 34.5398 23.0559C34.5401 22.8668 34.5031 22.6795 34.4309 22.5048C34.3587 22.33 34.2527 22.1712 34.1191 22.0374L25.5081 13.3985C25.2386 13.1281 24.8727 12.9759 24.491 12.9753C24.1093 12.9747 23.7429 13.1257 23.4726 13.3952C23.2022 13.6647 23.05 14.0305 23.0493 14.4123C23.0487 14.794 23.1998 15.1603 23.4693 15.4307L29.6319 21.6104L12.977 21.5835Z" fill="white"/>
</g>
<defs>
<clipPath id="clip0_19_1049">
<rect width="46" height="46" fill="white" transform="translate(0 46) rotate(-89.9073)"/>
</clipPath>
</defs>
</svg>
