<svg width="140" height="30" viewBox="0 0 170 45" fill="none" xmlns="http://www.w3.org/2000/svg">
<path d="M0.378906 19.0156V5.41016C0.378906 5.14453 0.472656 4.91406 0.660156 4.71875C0.855469 4.52344 1.08984 4.42578 1.36328 4.42578C1.62891 4.42578 1.85938 4.52344 2.05469 4.71875C2.25 4.91406 2.34766 5.14453 2.34766 5.41016V11.2109H8.34766V5.41016C8.34766 5.14453 8.44141 4.91406 8.62891 4.71875C8.82422 4.52344 9.05859 4.42578 9.33203 4.42578C9.60547 4.42578 9.83594 4.52344 10.0234 4.71875C10.2188 4.91406 10.3164 5.15234 10.3164 5.43359V19.0156C10.3164 19.2812 10.2148 19.5117 10.0117 19.707C9.81641 19.9023 9.58984 20 9.33203 20C9.05078 20 8.81641 19.9062 8.62891 19.7188C8.44141 19.5234 8.34766 19.2891 8.34766 19.0156V13.1797H2.37109V19.0156C2.37109 19.2812 2.26953 19.5117 2.06641 19.707C1.87109 19.9023 1.63672 20 1.36328 20C1.09766 20 0.867188 19.9062 0.671875 19.7188C0.476562 19.5234 0.378906 19.2891 0.378906 19.0156ZM23.8633 6.41797H16.9023V11.2109H19.9023C20.168 11.2109 20.3984 11.3086 20.5938 11.5039C20.7891 11.6992 20.8867 11.9297 20.8867 12.1953C20.8867 12.4766 20.7891 12.7148 20.5938 12.9102C20.4062 13.1055 20.1758 13.2031 19.9023 13.2031H16.9023V18.0312H23.8867C24.1523 18.0312 24.3828 18.1289 24.5781 18.3242C24.7734 18.5117 24.8711 18.7422 24.8711 19.0156C24.8711 19.2891 24.7695 19.5234 24.5664 19.7188C24.3711 19.9062 24.1367 20 23.8633 20H14.9336V4.42578H23.8633C24.1367 4.42578 24.3711 4.52734 24.5664 4.73047C24.7695 4.92578 24.8711 5.16016 24.8711 5.43359C24.8711 5.69922 24.7695 5.92969 24.5664 6.125C24.3711 6.32031 24.1367 6.41797 23.8633 6.41797ZM21.1211 0.253906C21.2617 0.191406 21.4062 0.160156 21.5547 0.160156C21.8359 0.160156 22.0664 0.265625 22.2461 0.476562C22.4258 0.679687 22.5156 0.910156 22.5156 1.16797C22.5156 1.58984 22.332 1.88672 21.9648 2.05859L18.3906 3.71094C18.25 3.77344 18.1055 3.80469 17.957 3.80469C17.6758 3.80469 17.4453 3.70312 17.2656 3.5C17.0859 3.28906 16.9961 3.05469 16.9961 2.79688C16.9961 2.375 17.1797 2.07813 17.5469 1.90625L21.1211 0.253906ZM29.4414 20V5.41016C29.4414 5.14453 29.5391 4.91406 29.7344 4.71875C29.9297 4.52344 30.1602 4.42578 30.4258 4.42578C30.6914 4.42578 30.9219 4.52344 31.1172 4.71875C31.3125 4.91406 31.4102 5.14453 31.4102 5.41016V18.0312H38.3711C38.6445 18.0312 38.8789 18.1289 39.0742 18.3242C39.2773 18.5117 39.3789 18.7422 39.3789 19.0156C39.3789 19.2891 39.2773 19.5234 39.0742 19.7188C38.8789 19.9062 38.6445 20 38.3711 20H29.4414ZM44.9102 4.42578H48.8008C49.3086 4.43359 49.8008 4.59766 50.2773 4.91797C50.7617 5.23828 51.1172 5.625 51.3438 6.07812L53.2891 10.0156C53.6562 10.7266 53.8398 11.4688 53.8398 12.2422C53.8398 12.9609 53.6445 13.6992 53.2539 14.457L51.2969 18.3477C51.0469 18.8477 50.6875 19.25 50.2188 19.5547C49.75 19.8516 49.2266 20 48.6484 20H44.8867C44.6133 20 44.3789 19.9023 44.1836 19.707C43.9961 19.5117 43.9023 19.2812 43.9023 19.0156C43.9023 18.7422 43.9961 18.5078 44.1836 18.3125C44.3789 18.1094 44.6133 18.0078 44.8867 18.0078H45.918V6.41797H44.9102C44.6367 6.41797 44.4023 6.32031 44.207 6.125C44.0195 5.92188 43.9258 5.68359 43.9258 5.41016C43.9258 5.14453 44.0195 4.91406 44.207 4.71875C44.4023 4.52344 44.6367 4.42578 44.9102 4.42578ZM47.8867 6.41797V18.0312H48.5781C49.0156 18.0312 49.3438 17.8164 49.5625 17.3867L51.5078 13.5195C51.75 13.0117 51.8711 12.5859 51.8711 12.2422C51.8711 11.8125 51.7734 11.4062 51.5781 11.0234L49.5625 7.01562C49.3516 6.61719 49.0078 6.41797 48.5312 6.41797H47.8867ZM67.3867 6.41797H60.4258V11.2109H63.4258C63.6914 11.2109 63.9219 11.3086 64.1172 11.5039C64.3125 11.6992 64.4102 11.9297 64.4102 12.1953C64.4102 12.4766 64.3125 12.7148 64.1172 12.9102C63.9297 13.1055 63.6992 13.2031 63.4258 13.2031H60.4258V18.0312H67.4102C67.6758 18.0312 67.9062 18.1289 68.1016 18.3242C68.2969 18.5117 68.3945 18.7422 68.3945 19.0156C68.3945 19.2891 68.293 19.5234 68.0898 19.7188C67.8945 19.9062 67.6602 20 67.3867 20H58.457V4.42578H67.3867C67.6602 4.42578 67.8945 4.52734 68.0898 4.73047C68.293 4.92578 68.3945 5.16016 68.3945 5.43359C68.3945 5.69922 68.293 5.92969 68.0898 6.125C67.8945 6.32031 67.6602 6.41797 67.3867 6.41797ZM72.9883 19.0156V4.42578H79.9492C80.7539 4.42578 81.4453 4.71875 82.0234 5.30469C82.6094 5.89062 82.9023 6.58984 82.9023 7.40234V8.52734C82.9023 9.34766 82.6133 10.0508 82.0352 10.6367C81.457 11.2148 80.7617 11.5039 79.9492 11.5039H78.6953L82.7266 18.418C82.8516 18.6211 82.9141 18.8242 82.9141 19.0273C82.9141 19.293 82.8125 19.5234 82.6094 19.7188C82.4062 19.9062 82.1758 20 81.918 20C81.5273 20 81.2305 19.8242 81.0273 19.4727L76.3984 11.5039H74.9805V19.0156C74.9805 19.2891 74.8789 19.5234 74.6758 19.7188C74.4805 19.9062 74.2461 20 73.9727 20C73.6992 20 73.4648 19.9062 73.2695 19.7188C73.082 19.5234 72.9883 19.2891 72.9883 19.0156ZM74.957 9.53516H79.9492C80.2227 9.53516 80.4531 9.44141 80.6406 9.25391C80.8359 9.05859 80.9336 8.82422 80.9336 8.55078V7.40234C80.9336 7.12891 80.8359 6.89844 80.6406 6.71094C80.4531 6.51562 80.2227 6.41797 79.9492 6.41797H74.957V9.53516ZM72.9883 44.0156V29.4258H79.9492C80.7539 29.4258 81.4453 29.7188 82.0234 30.3047C82.6094 30.8906 82.9023 31.5898 82.9023 32.4023V33.5273C82.9023 34.3477 82.6133 35.0508 82.0352 35.6367C81.457 36.2148 80.7617 36.5039 79.9492 36.5039H78.6953L82.7266 43.418C82.8516 43.6211 82.9141 43.8242 82.9141 44.0273C82.9141 44.293 82.8125 44.5234 82.6094 44.7188C82.4062 44.9062 82.1758 45 81.918 45C81.5273 45 81.2305 44.8242 81.0273 44.4727L76.3984 36.5039H74.9805V44.0156C74.9805 44.2891 74.8789 44.5234 74.6758 44.7188C74.4805 44.9062 74.2461 45 73.9727 45C73.6992 45 73.4648 44.9062 73.2695 44.7188C73.082 44.5234 72.9883 44.2891 72.9883 44.0156ZM74.957 34.5352H79.9492C80.2227 34.5352 80.4531 34.4414 80.6406 34.2539C80.8359 34.0586 80.9336 33.8242 80.9336 33.5508V32.4023C80.9336 32.1289 80.8359 31.8984 80.6406 31.7109C80.4531 31.5156 80.2227 31.418 79.9492 31.418H74.957V34.5352ZM88.4336 29.4258H96.4023C96.6602 29.4258 96.8867 29.5234 97.082 29.7188C97.2852 29.9141 97.3867 30.1445 97.3867 30.4102C97.3867 30.6836 97.2891 30.9219 97.0938 31.125C96.8984 31.3203 96.668 31.418 96.4023 31.418H93.4258V43.0312H96.4023C96.6758 43.0312 96.9062 43.1289 97.0938 43.3242C97.2891 43.5117 97.3867 43.7422 97.3867 44.0156C97.3867 44.2891 97.2891 44.5234 97.0938 44.7188C96.8984 44.9062 96.668 45 96.4023 45H88.4336C88.1602 45 87.9258 44.9062 87.7305 44.7188C87.543 44.5234 87.4492 44.2891 87.4492 44.0156C87.4492 43.7422 87.543 43.5117 87.7305 43.3242C87.9258 43.1289 88.1602 43.0312 88.4336 43.0312H91.457V31.418H88.4336C88.1602 31.418 87.9258 31.3203 87.7305 31.125C87.543 30.9297 87.4492 30.6992 87.4492 30.4336C87.4492 30.1523 87.543 29.9141 87.7305 29.7188C87.9258 29.5234 88.1602 29.4258 88.4336 29.4258ZM111.895 40.1719V41.0391C111.895 42.125 111.508 43.0586 110.734 43.8398C109.969 44.6133 109.043 45 107.957 45H101.934V29.4258H107.957C109.043 29.4258 109.969 29.8125 110.734 30.5859C111.508 31.3594 111.895 32.293 111.895 33.3867V34.2188C111.895 35.3828 111.445 36.375 110.547 37.1953C111.445 38.0312 111.895 39.0234 111.895 40.1719ZM109.879 34.1953V33.3867C109.879 32.8398 109.684 32.3711 109.293 31.9805C108.91 31.5898 108.449 31.3945 107.91 31.3945H103.902V36.1641H107.91C108.441 36.1641 108.902 35.9727 109.293 35.5898C109.684 35.1992 109.879 34.7344 109.879 34.1953ZM109.879 41.0391V40.2188C109.879 39.6719 109.684 39.2031 109.293 38.8125C108.91 38.4219 108.449 38.2266 107.91 38.2266H103.926V43.0078H107.91C108.441 43.0078 108.902 42.8164 109.293 42.4336C109.684 42.043 109.879 41.5781 109.879 41.0391ZM125.418 31.418H118.457V36.2109H121.457C121.723 36.2109 121.953 36.3086 122.148 36.5039C122.344 36.6992 122.441 36.9297 122.441 37.1953C122.441 37.4766 122.344 37.7148 122.148 37.9102C121.961 38.1055 121.73 38.2031 121.457 38.2031H118.457V43.0312H125.441C125.707 43.0312 125.938 43.1289 126.133 43.3242C126.328 43.5117 126.426 43.7422 126.426 44.0156C126.426 44.2891 126.324 44.5234 126.121 44.7188C125.926 44.9062 125.691 45 125.418 45H116.488V29.4258H125.418C125.691 29.4258 125.926 29.5273 126.121 29.7305C126.324 29.9258 126.426 30.1602 126.426 30.4336C126.426 30.6992 126.324 30.9297 126.121 31.125C125.926 31.3203 125.691 31.418 125.418 31.418ZM131.957 29.4258H139.926C140.184 29.4258 140.41 29.5234 140.605 29.7188C140.809 29.9141 140.91 30.1445 140.91 30.4102C140.91 30.6836 140.812 30.9219 140.617 31.125C140.422 31.3203 140.191 31.418 139.926 31.418H136.949V43.0312H139.926C140.199 43.0312 140.43 43.1289 140.617 43.3242C140.812 43.5117 140.91 43.7422 140.91 44.0156C140.91 44.2891 140.812 44.5234 140.617 44.7188C140.422 44.9062 140.191 45 139.926 45H131.957C131.684 45 131.449 44.9062 131.254 44.7188C131.066 44.5234 130.973 44.2891 130.973 44.0156C130.973 43.7422 131.066 43.5117 131.254 43.3242C131.449 43.1289 131.684 43.0312 131.957 43.0312H134.98V31.418H131.957C131.684 31.418 131.449 31.3203 131.254 31.125C131.066 30.9297 130.973 30.6992 130.973 30.4336C130.973 30.1523 131.066 29.9141 131.254 29.7188C131.449 29.5234 131.684 29.4258 131.957 29.4258ZM145.527 44.0156V29.4258H152.488C153.293 29.4258 153.984 29.7188 154.562 30.3047C155.148 30.8906 155.441 31.5898 155.441 32.4023V33.5273C155.441 34.3477 155.152 35.0508 154.574 35.6367C153.996 36.2148 153.301 36.5039 152.488 36.5039H151.234L155.266 43.418C155.391 43.6211 155.453 43.8242 155.453 44.0273C155.453 44.293 155.352 44.5234 155.148 44.7188C154.945 44.9062 154.715 45 154.457 45C154.066 45 153.77 44.8242 153.566 44.4727L148.938 36.5039H147.52V44.0156C147.52 44.2891 147.418 44.5234 147.215 44.7188C147.02 44.9062 146.785 45 146.512 45C146.238 45 146.004 44.9062 145.809 44.7188C145.621 44.5234 145.527 44.2891 145.527 44.0156ZM147.496 34.5352H152.488C152.762 34.5352 152.992 34.4414 153.18 34.2539C153.375 34.0586 153.473 33.8242 153.473 33.5508V32.4023C153.473 32.1289 153.375 31.8984 153.18 31.7109C152.992 31.5156 152.762 31.418 152.488 31.418H147.496V34.5352ZM167.301 30.8672L169.469 35.2852C169.773 35.8867 169.926 36.5391 169.926 37.2422C169.926 37.9297 169.773 38.5781 169.469 39.1875L167.301 43.5586C166.84 44.5195 166.059 45 164.957 45C164.434 45 163.961 44.8633 163.539 44.5898C163.125 44.3164 162.812 43.9727 162.602 43.5586L160.422 39.1875C160.133 38.6172 159.988 37.9688 159.988 37.2422C159.988 36.5156 160.133 35.8633 160.422 35.2852L162.602 30.8672C163.094 29.9062 163.879 29.4258 164.957 29.4258C166.051 29.4258 166.832 29.9062 167.301 30.8672ZM164.301 31.8516L162.262 36C162.074 36.4141 161.98 36.8203 161.98 37.2188C161.98 37.6484 162.074 38.0586 162.262 38.4492L164.359 42.6445C164.469 42.9023 164.668 43.0312 164.957 43.0312C165.207 43.0312 165.398 42.9023 165.531 42.6445L167.641 38.4492C167.836 38.0352 167.934 37.625 167.934 37.2188C167.934 36.7891 167.836 36.3828 167.641 36L165.578 31.8516C165.445 31.5469 165.238 31.3945 164.957 31.3945C164.676 31.3945 164.457 31.5469 164.301 31.8516Z" fill="white"/>
</svg>
