<svg width="49" height="49" viewBox="0 0 49 49" fill="none" xmlns="http://www.w3.org/2000/svg">
<g clip-path="url(#clip0_4_17)">
<path d="M53.6406 27.4216H53.4132C53.989 27.4216 54.4552 26.9454 54.4552 26.3582V1.06345C54.4552 0.475453 53.989 0 53.4132 0H15.6082C15.0325 0 14.5654 0.475453 14.5654 1.06345V26.3589C14.5654 26.9462 15.0325 27.4224 15.6082 27.4224H15.3594L11.5312 31.1372C11.5312 32.412 12.5633 33.6875 13.8258 33.6875H55.1749C56.3655 33.6875 57.4688 32.415 57.4688 31.1364L53.6406 27.4216ZM34.5107 0.593359C34.5906 0.590442 34.6702 0.603646 34.7449 0.632184C34.8195 0.660722 34.8876 0.704009 34.9452 0.75946C35.0028 0.814911 35.0485 0.88139 35.0798 0.954927C35.1111 1.02846 35.1273 1.10755 35.1273 1.18747C35.1274 1.26739 35.1113 1.3465 35.0801 1.42007C35.0489 1.49365 35.0032 1.56019 34.9458 1.61571C34.8883 1.67124 34.8202 1.71461 34.7456 1.74325C34.671 1.77188 34.5914 1.78519 34.5115 1.78237C34.3575 1.77695 34.2116 1.71199 34.1046 1.60117C33.9975 1.49035 33.9376 1.34232 33.9375 1.18824C33.9374 1.03416 33.9971 0.886046 34.104 0.775089C34.211 0.664132 34.3567 0.598984 34.5107 0.593359M15.6695 28.1873H53.3298L55.5792 30.3708H38.7431L38.4384 29.9666H30.5831L30.2776 30.3708H13.4193L15.6695 28.1873ZM37.8044 32.7978H31.194C30.9674 32.7978 30.3641 32.7978 30.3641 32.0261H38.6351C38.6351 32.7978 38.0196 32.7978 37.8044 32.7978Z" fill="black"/>
</g>
<defs>
<clipPath id="clip0_4_17">
<rect width="49" height="49" fill="white"/>
</clipPath>
</defs>
</svg>
